<?xml version="1.0" encoding="utf-8"?>
<!-- Generator: Adobe Illustrator 26.4.0, SVG Export Plug-In . SVG Version: 6.00 Build 0)  -->
<svg version="1.1" id="Layer_1" xmlns="http://www.w3.org/2000/svg" xmlns:xlink="http://www.w3.org/1999/xlink" x="0px" y="0px"
	 viewBox="0 0 300 300" style="enable-background:new 0 0 300 300;" xml:space="preserve">
<g>
	<g>
		<path d="M154,124.2H71.4c-2,0-3.6,1.6-3.6,3.6v5c0,2,1.6,3.6,3.6,3.6H154c2,0,3.6-1.6,3.6-3.6v-5C157.6,125.8,156,124.2,154,124.2
			z"/>
		<path d="M52.2,124.2H10.1c-2,0-3.6,1.6-3.6,3.6v5c0,2,1.6,3.6,3.6,3.6h42.1c2,0,3.6-1.6,3.6-3.6v-5
			C55.8,125.8,54.2,124.2,52.2,124.2z"/>
		<path d="M232.6,124.2h-49.1c-2,0-3.6,1.6-3.6,3.6v5c0,2,1.6,3.6,3.6,3.6h49.1c2,0,3.6-1.6,3.6-3.6v-5
			C236.2,125.8,234.6,124.2,232.6,124.2z"/>
		<path d="M232.6,106.7h-41c-2,0-3.6,1.6-3.6,3.6v5c0,2,1.6,3.6,3.6,3.6h41c2,0,3.6-1.6,3.6-3.6v-5
			C236.2,108.3,234.6,106.7,232.6,106.7z"/>
		<path d="M277.2,106.7h-31.1c-2,0-3.6,1.6-3.6,3.6v5c0,2,1.6,3.6,3.6,3.6h31.1c2,0,3.6-1.6,3.6-3.6v-5
			C280.8,108.3,279.2,106.7,277.2,106.7z"/>
		<path d="M266.2,88.9h-36.3c-2,0-3.6,1.6-3.6,3.6v5c0,2,1.6,3.6,3.6,3.6h36.3c2,0,3.6-1.6,3.6-3.6v-5
			C269.8,90.5,268.2,88.9,266.2,88.9z"/>
		<path d="M249.3,71.4h-5.6c-2,0-3.6,1.6-3.6,3.6v5c0,2,1.6,3.6,3.6,3.6h5.6c2,0,3.6-1.6,3.6-3.6v-5C252.9,73,251.3,71.4,249.3,71.4
			z"/>
		<path d="M128.9,211.5h-15c-2,0-3.6,1.6-3.6,3.6v5.4c0,2,1.6,3.6,3.6,3.6h15c2,0,3.6-1.6,3.6-3.6v-5.4
			C132.5,213.1,130.9,211.5,128.9,211.5z"/>
		<path d="M159.7,211.5h-7.4c-2,0-3.6,1.6-3.6,3.6v5.4c0,2,1.6,3.6,3.6,3.6h7.4c2,0,3.6-1.6,3.6-3.6v-5.4
			C163.3,213.1,161.7,211.5,159.7,211.5z"/>
		<path d="M205.6,211.8h-32c-2,0-3.6,1.6-3.6,3.6v4.7c0,2,1.6,3.6,3.6,3.6h32c2,0,3.6-1.6,3.6-3.6v-4.7
			C209.1,213.4,207.5,211.8,205.6,211.8z"/>
		<path d="M202.3,194h-9.1c-2,0-3.6,1.6-3.6,3.6v5.4c0,2,1.6,3.6,3.6,3.6h9.1c2,0,3.6-1.6,3.6-3.6v-5.4
			C205.8,195.6,204.2,194,202.3,194z"/>
		<path d="M89,211.5h-5.6c-2,0-3.6,1.6-3.6,3.6v5.4c0,2,1.6,3.6,3.6,3.6H89c2,0,3.6-1.6,3.6-3.6v-5.4C92.6,213.1,91,211.5,89,211.5z
			"/>
		<path d="M138.9,232.5c0-2,1.6-3.6,3.6-3.6h5.6c2,0,3.6,1.6,3.6,3.6v5.4c0,2-1.6,3.6-3.6,3.6h-5.6c-2,0-3.6-1.6-3.6-3.6V232.5z"/>
		<path d="M135,246.4h-5c-2,0-3.6,1.6-3.6,3.6v5.4c0,2,1.6,3.6,3.6,3.6h5c2,0,3.6-1.6,3.6-3.6V250C138.6,248,137,246.4,135,246.4z"
			/>
		<path d="M187,53.9h-8.7c-2,0-3.6,1.6-3.6,3.6v5c0,2,1.6,3.6,3.6,3.6h8.7c2,0,3.6-1.6,3.6-3.6v-5C190.6,55.5,189,53.9,187,53.9z"/>
		<path d="M121.5,106.7H88.1c-2,0-3.6,1.6-3.6,3.6v5c0,2,1.6,3.6,3.6,3.6h33.4c2,0,3.6-1.6,3.6-3.6v-5
			C125.1,108.3,123.5,106.7,121.5,106.7z"/>
		<path d="M180.8,71.4h-17.5c-2,0-3.6,1.6-3.6,3.6v5c0,2,1.6,3.6,3.6,3.6h17.5c2,0,3.6-1.6,3.6-3.6v-5
			C184.4,73,182.8,71.4,180.8,71.4z"/>
		<path d="M180.8,88.9h-32.6c-2,0-3.6,1.6-3.6,3.6v5c0,2,1.6,3.6,3.6,3.6h32.6c2,0,3.6-1.6,3.6-3.6v-5
			C184.4,90.5,182.8,88.9,180.8,88.9z"/>
		<path d="M288,124.2h-16.1c-2,0-3.6,1.6-3.6,3.6v5c0,2,1.6,3.6,3.6,3.6H288c2,0,3.6-1.6,3.6-3.6v-5
			C291.6,125.8,290,124.2,288,124.2z"/>
		<path d="M160.4,141.7H52.9c-2,0-3.6,1.6-3.6,3.6v5c0,2,1.6,3.6,3.6,3.6h107.5c2,0,3.6-1.6,3.6-3.6v-5
			C163.9,143.3,162.3,141.7,160.4,141.7z"/>
		<path d="M194.6,176.7h-37.6c-2,0-3.6,1.6-3.6,3.6v5c0,2,1.6,3.6,3.6,3.6h37.6c2,0,3.6-1.6,3.6-3.6v-5
			C198.2,178.3,196.6,176.7,194.6,176.7z"/>
		<path d="M209.9,159.2H71.4c-2,0-3.6,1.6-3.6,3.6v5c0,2,1.6,3.6,3.6,3.6h138.5c2,0,3.6-1.6,3.6-3.6v-5
			C213.5,160.8,211.8,159.2,209.9,159.2z"/>
		<path d="M96.1,176.7h-47c-2,0-3.6,1.6-3.6,3.6v5c0,2,1.6,3.6,3.6,3.6h47c2,0,3.6-1.6,3.6-3.6v-5C99.7,178.3,98.1,176.7,96.1,176.7
			z"/>
		<path d="M109.1,194H98.5c-2,0-3.6,1.6-3.6,3.6v5.4c0,2,1.6,3.6,3.6,3.6h10.6c2,0,3.6-1.6,3.6-3.6v-5.4
			C112.7,195.6,111.1,194,109.1,194z"/>
		<path d="M173.2,194h-12c-2,0-3.6,1.6-3.6,3.6v5.4c0,2,1.6,3.6,3.6,3.6h12c2,0,3.6-1.6,3.6-3.6v-5.4
			C176.7,195.6,175.1,194,173.2,194z"/>
		<path d="M76.5,194H65.7c-2,0-3.6,1.6-3.6,3.6v5.4c0,2,1.6,3.6,3.6,3.6h10.8c2,0,3.6-1.6,3.6-3.6v-5.4
			C80.1,195.6,78.5,194,76.5,194z"/>
		<path d="M222.7,141.7h-39.2c-2,0-3.6,1.6-3.6,3.6v5c0,2,1.6,3.6,3.6,3.6h39.2c2,0,3.6-1.6,3.6-3.6v-5
			C226.3,143.3,224.7,141.7,222.7,141.7z"/>
	</g>
</g>
<defs>
	<clippath  id="svg-1513607025_13604_clip0_30_25370">
		<rect  fill="white" height="36" width="179"></rect>
	</clippath>
</defs>
</svg>
